PathFileType	4	(X/Y/Z)	C:\Github\BTS_project\Data\sports2d_results\test4 Exam_2026-03-06_143128_tvc2_Sports2D\test4 Exam_2026-03-06_143128_tvc2_Sports2D_m_person00.trc
DataRate	CameraRate	NumFrames	NumMarkers	Units	OrigDataRate	OrigDataStartFrame	OrigNumFrames
30.0	30.0	6	22	m	30.0	40	321
Frame#	Time	Hip			RHip			RKnee			RAnkle			RBigToe			RSmallToe			RHeel			LHip			LKnee			LAnkle			LBigToe			LSmallToe			LHeel			Neck			Head			Nose			RShoulder			RElbow			RWrist			LShoulder			LElbow			LWrist			
		X1	Y1	Z1	X2	Y2	Z2	X3	Y3	Z3	X4	Y4	Z4	X5	Y5	Z5	X6	Y6	Z6	X7	Y7	Z7	X8	Y8	Z8	X9	Y9	Z9	X10	Y10	Z10	X11	Y11	Z11	X12	Y12	Z12	X13	Y13	Z13	X14	Y14	Z14	X15	Y15	Z15	X16	Y16	Z16	X17	Y17	Z17	X18	Y18	Z18	X19	Y19	Z19	X20	Y20	Z20	X21	Y21	Z21	X22	Y22	Z22
40	1.3375	2.188459206168885	0.529578067179146	0.0301	2.116065817343198	0.5895150020679891	0.0301	1.8623563415122406	0.3618760130464506	0.129	1.6755025550854585	0.12574752666111189	0.023	1.6141563322279426	0.061151053179946346	0.2179	1.5891585326925155	0.10673594392216282	0.1804	1.6741784602286631	0.08354549327912439	-0.0119	2.242932721132002	0.4526755353001689	0.0301	2.017262503604966	0.23855467314276754	0.129	1.8431155012195206	0.11629262137872594	0.023	1.762497263490945	0.009994086840418238	0.2179	1.8123853257757006	-0.007654735188308112	0.1804	1.8131752612496022	0.11380604729562108	-0.0119	2.5405247004286844	0.8809883022869484	0.0008	2.7008649418276476	1.0665751372836376	0.0655	2.5792426632742997	0.9504262802913721	0.1076	2.3764407987746945	0.9516914999594982	-0.01275	2.1634440822440006	0.9012523360231733	0.0702	1.9511313208062855	0.8550762438774013	0.1076	2.623584466011017	0.7109957436535433	-0.01275	2.5048712014701144	0.5113346422736901	0.0702	2.3664613646815433	0.34878118435337124	0.1076
41	1.3709374999999997	2.188771997084893	0.5291849223434757	0.0301	2.116309979251707	0.5880923154993314	0.0301	1.8625659179121252	0.3613142148518486	0.129	1.675069520345349	0.12537274913150875	0.023	1.6132461350462306	0.061921497203563526	0.2179	1.5891747196192085	0.10593909643838331	0.1804	1.6735227845075842	0.08199912213148129	-0.0119	2.243548178311187	0.4527312975646722	0.0301	2.0189003016390252	0.2396234564454797	0.129	1.8470331983262658	0.120833694116114	0.023	1.7682404880647105	0.014979497680107163	0.2179	1.8180543323931517	-0.002660509805676112	0.1804	1.8165183022044584	0.11953994800179352	-0.0119	2.5396148408403647	0.8821462800390765	0.0008	2.7006990452171684	1.0668223522124345	0.0655	2.5800800745174843	0.9499478856804745	0.1076	2.3745033133721885	0.952782185727747	-0.01275	2.162199440062881	0.9047408642292878	0.0702	1.9503615663767742	0.8624883823571631	0.1076	2.6227652860614303	0.7124035738913366	-0.01275	2.505630113135422	0.5124627278439087	0.0702	2.366374158826344	0.349350349171427	0.1076
42	1.4043749999999997	2.189198314915055	0.5295122254286688	0.0301	2.117026492116276	0.5874878014043674	0.0301	1.863184572692406	0.36151926143876784	0.129	1.6749979034063898	0.12535291659667452	0.023	1.6126422987008375	0.06247543830136922	0.2179	1.5888153550373474	0.10405917716017032	0.1804	1.6727111390526472	0.08113208042033399	-0.0119	2.245250878930195	0.45359164131654656	0.0301	2.021845853093605	0.2415663451533783	0.129	1.8523496710190772	0.12703823594025257	0.023	1.7751643663964831	0.021600909604251452	0.2179	1.8256178968168155	0.004606871881770144	0.1804	1.821217921196694	0.1268327091742346	-0.0119	2.5387383671466006	0.8822148726133524	0.0008	2.7001869583589464	1.0669697996105003	0.0655	2.5815850638509503	0.9485446822125105	0.1076	2.3729989190304086	0.952504982256208	-0.01275	2.1618590148973706	0.9079458776582102	0.0702	1.9495428839517381	0.8687798854816297	0.1076	2.621132355720746	0.7129976513860844	-0.01275	2.5065453862476352	0.514061036145439	0.0702	2.3670453925070105	0.35060203264849193	0.1076
43	1.4378124999999997	2.189535412760072	0.5299463964171413	0.0301	2.1173758437829293	0.5878730622589534	0.0301	1.8640458395413475	0.3619430792482928	0.129	1.67512626253872	0.12605845057340467	0.023	1.6127430134335463	0.06293994910620979	0.2179	1.5882327843879949	0.10268146890720407	0.1804	1.6717077572532133	0.0802816523421299	-0.0119	2.2470345743604243	0.4541548970898558	0.0301	2.0255108370020016	0.2428699128119187	0.129	1.8582941216636768	0.134730795684833	0.023	1.7804131108017422	0.02850174059501832	0.2179	1.8312165795530229	0.011686575312338467	0.1804	1.828559180622586	0.1369570689549973	-0.0119	2.5379805946486846	0.8815135099309771	0.0008	2.699659965089189	1.0672562676418058	0.0655	2.5813946753355523	0.9480547198606041	0.1076	2.3722920983742672	0.9524607183244747	-0.01275	2.161890683330166	0.9115301162615177	0.0702	1.949532333913987	0.8734600977848863	0.1076	2.6199898026389903	0.7129769890052327	-0.01275	2.5063224685185213	0.5155156647058721	0.0702	2.3693347729525907	0.35311192229191807	0.1076
44	1.4712499999999997	2.1900116428329883	0.5301133654212139	0.0301	2.117288172493387	0.5885589619463509	0.0301	1.864552266002521	0.36186488027064145	0.129	1.6754310067742544	0.1275555207683374	0.023	1.6127508359730127	0.06269355721624133	0.2179	1.5878692509630437	0.1025757872807758	0.1804	1.6710223942759572	0.07982027059974524	-0.0119	2.2478505274419254	0.4543632165186151	0.0301	2.0291469638950033	0.24350712003157943	0.129	1.8639644776856985	0.1422489518864161	0.023	1.783888012346889	0.03439199948661427	0.2179	1.8344950698858355	0.01758026064224027	0.1804	1.8360606008322224	0.14680255515299717	-0.0119	2.537399569600862	0.8809368357158198	0.0008	2.699885818388891	1.067566580086463	0.0655	2.5799848403042804	0.9481565015072212	0.1076	2.371614135042631	0.9536583932986559	-0.01275	2.1608678472713803	0.9145456016015365	0.0702	1.9490365035069555	0.8757544877606767	0.1076	2.6201120242052793	0.7132160052847906	-0.01275	2.505517542246861	0.5164539146088528	0.0702	2.372716788709663	0.355601240196704	0.1076
45	1.5046874999999997	2.190815108395577	0.5300227914901183	0.0301	2.1172178349933994	0.5891842732813674	0.0301	1.8642834489746865	0.361157290876596	0.129	1.67611503071357	0.12889512539156045	0.023	1.6123045998127392	0.06151866790358035	0.2179	1.5879807232683392	0.10307228616585988	0.1804	1.671961631485333	0.08076061492119084	-0.0119	2.247981772476979	0.4547477229143107	0.0301	2.0321008072824944	0.244439029352584	0.129	1.86922812557482	0.1477312274214754	0.023	1.7877536963924796	0.038709173341633894	0.2179	1.8379615048786577	0.02235857088871687	0.1804	1.8412597722414499	0.15297439033410035	-0.0119	2.5365051272208152	0.8810599559581762	0.0008	2.7002951384629093	1.0681083034997587	0.0655	2.579275947244421	0.9477320399317373	0.1076	2.370466069639277	0.9556056126336928	-0.01275	2.1588583445478813	0.9156599692646811	0.0702	1.9473113263205928	0.876178013261054	0.1076	2.6209345839261045	0.7138859901214203	-0.01275	2.50547190231039	0.5167624085358716	0.0702	2.375792838825937	0.3566784908906853	0.1076
